<svg xmlns="http://www.w3.org/2000/svg" width="24" height="24" viewBox="0 0 24 24" fill="none"><path d="M21 12H3M21 12C21 9.7175 20.1503 7.63344 18.75 6.0469M21 12C21 14.2825 20.1503 16.3666 18.75 17.9531M12 21V3M12 21C14.6881 21 17.1009 19.8216 18.75 17.9531M12 21C9.31194 21 6.89912 19.8216 5.25 17.9531M3 12C3 9.7175 3.84968 7.63344 5.25 6.0469M3 12C3 14.2825 3.84968 16.3666 5.25 17.9531M12 3C14.6881 3 17.1009 4.17845 18.75 6.0469M12 3C9.31194 3 6.89912 4.17845 5.25 6.0469M18.75 6.0469C18.75 6.0469 16.5 8.625 16.5 12C16.5 15.375 18.75 17.9531 18.75 17.9531M5.25 6.0469C5.25 6.0469 7.5 8.625 7.5 12C7.5 15.375 5.25 17.9531 5.25 17.9531" stroke="#ffffff" stroke-width="1.5"></path></svg>