<svg width="24" height="24" viewBox="0 0 24 24" fill="none" xmlns="http://www.w3.org/2000/svg"><path d="M6 5.3C6.94113 6.14409 7.69387 7.17698 8.20919 8.33138C8.72451 9.48578 8.99084 10.7358 8.99084 12C8.99084 13.2642 8.72451 14.5142 8.20919 15.6686C7.69387 16.823 6.94113 17.8559 6 18.7M18 5.3C17.0589 6.14409 16.3061 7.17698 15.7908 8.33138C15.2755 9.48578 15.0092 10.7358 15.0092 12C15.0092 13.2642 15.2755 14.5142 15.7908 15.6686C16.3061 16.823 17.0589 17.8559 18 18.7M21 12C21 16.9706 16.9706 21 12 21C7.02944 21 3 16.9706 3 12C3 7.02944 7.02944 3 12 3C16.9706 3 21 7.02944 21 12Z" stroke="#ffffff" stroke-width="1.5" stroke-linecap="round" stroke-linejoin="round"></path></svg>